<svg width="16" height="21" viewBox="0 0 16 21" fill="none" xmlns="http://www.w3.org/2000/svg">
<path d="M8 10.3882C8.55 10.3882 9.021 10.1922 9.413 9.80024C9.80433 9.40891 10 8.93824 10 8.38824C10 7.83824 9.80433 7.36724 9.413 6.97524C9.021 6.58391 8.55 6.38824 8 6.38824C7.45 6.38824 6.97933 6.58391 6.588 6.97524C6.196 7.36724 6 7.83824 6 8.38824C6 8.93824 6.196 9.40891 6.588 9.80024C6.97933 10.1922 7.45 10.3882 8 10.3882ZM8 20.3882C5.31667 18.1049 3.31267 15.9839 1.988 14.0252C0.662667 12.0672 0 10.2549 0 8.58824C0 6.08824 0.804333 4.09658 2.413 2.61324C4.021 1.12991 5.88333 0.388245 8 0.388245C10.1167 0.388245 11.979 1.12991 13.587 2.61324C15.1957 4.09658 16 6.08824 16 8.58824C16 10.2549 15.3377 12.0672 14.013 14.0252C12.6877 15.9839 10.6833 18.1049 8 20.3882Z" fill="white"/>
</svg>
