<svg width="25" height="25" viewBox="0 0 25 25" fill="none" xmlns="http://www.w3.org/2000/svg">
<path d="M12.3333 2.17804C17.8563 2.17804 22.3333 6.65504 22.3333 12.178C22.3345 13.7306 21.9738 15.2621 21.2796 16.6508C20.5854 18.0396 19.5769 19.2473 18.3343 20.178H20.3333C20.5985 20.178 20.8528 20.2834 21.0404 20.4709C21.2279 20.6585 21.3333 20.9128 21.3333 21.178C21.3333 21.4433 21.2279 21.6976 21.0404 21.8851C20.8528 22.0727 20.5985 22.178 20.3333 22.178H12.3333C6.81025 22.178 2.33325 17.701 2.33325 12.178C2.33325 6.65504 6.81025 2.17804 12.3333 2.17804ZM12.3333 14.178C11.8028 14.178 11.2941 14.3888 10.919 14.7638C10.544 15.1389 10.3333 15.6476 10.3333 16.178C10.3333 16.7085 10.544 17.2172 10.919 17.5923C11.2941 17.9673 11.8028 18.178 12.3333 18.178C12.8637 18.178 13.3724 17.9673 13.7475 17.5923C14.1225 17.2172 14.3333 16.7085 14.3333 16.178C14.3333 15.6476 14.1225 15.1389 13.7475 14.7638C13.3724 14.3888 12.8637 14.178 12.3333 14.178ZM8.33325 10.178C7.80282 10.178 7.29411 10.3888 6.91904 10.7638C6.54397 11.1389 6.33325 11.6476 6.33325 12.178C6.33325 12.7085 6.54397 13.2172 6.91904 13.5923C7.29411 13.9673 7.80282 14.178 8.33325 14.178C8.86369 14.178 9.37239 13.9673 9.74747 13.5923C10.1225 13.2172 10.3333 12.7085 10.3333 12.178C10.3333 11.6476 10.1225 11.1389 9.74747 10.7638C9.37239 10.3888 8.86369 10.178 8.33325 10.178ZM16.3333 10.178C15.8028 10.178 15.2941 10.3888 14.919 10.7638C14.544 11.1389 14.3333 11.6476 14.3333 12.178C14.3333 12.7085 14.544 13.2172 14.919 13.5923C15.2941 13.9673 15.8028 14.178 16.3333 14.178C16.8637 14.178 17.3724 13.9673 17.7475 13.5923C18.1225 13.2172 18.3333 12.7085 18.3333 12.178C18.3333 11.6476 18.1225 11.1389 17.7475 10.7638C17.3724 10.3888 16.8637 10.178 16.3333 10.178ZM12.3333 6.17804C11.8028 6.17804 11.2941 6.38875 10.919 6.76383C10.544 7.1389 10.3333 7.64761 10.3333 8.17804C10.3333 8.70847 10.544 9.21718 10.919 9.59225C11.2941 9.96733 11.8028 10.178 12.3333 10.178C12.8637 10.178 13.3724 9.96733 13.7475 9.59225C14.1225 9.21718 14.3333 8.70847 14.3333 8.17804C14.3333 7.64761 14.1225 7.1389 13.7475 6.76383C13.3724 6.38875 12.8637 6.17804 12.3333 6.17804Z" fill="white"/>
</svg>
