<svg width="24" height="25" viewBox="0 0 24 25" fill="none" xmlns="http://www.w3.org/2000/svg">
<circle cx="12" cy="12.3882" r="12" fill="#D14040"/>
<g clip-path="url(#clip0_504_1266)">
<path fill-rule="evenodd" clip-rule="evenodd" d="M11.0222 4.82303C10.4515 4.82303 9.90404 5.04977 9.50043 5.45339C9.09682 5.857 8.87007 6.40441 8.87007 6.9752V7.3219C8.25098 7.38161 7.63376 7.45938 7.0192 7.55512C6.94192 7.56564 6.86751 7.59147 6.80032 7.63108C6.73313 7.6707 6.67451 7.72331 6.62789 7.78583C6.58126 7.84836 6.54757 7.91956 6.52877 7.99526C6.50998 8.07095 6.50646 8.14964 6.51842 8.22672C6.53038 8.30379 6.55758 8.37771 6.59844 8.44415C6.63929 8.51059 6.69298 8.56822 6.75637 8.61368C6.81975 8.65913 6.89156 8.6915 6.96759 8.70889C7.04363 8.72627 7.12236 8.72833 7.1992 8.71494L7.31581 8.69772L7.97399 16.9292C8.01708 17.4686 8.26175 17.9719 8.65928 18.339C9.05682 18.7061 9.57803 18.9099 10.1191 18.91H13.8811C14.4222 18.9101 14.9435 18.7065 15.3412 18.3395C15.7389 17.9726 15.9837 17.4693 16.027 16.93L16.6852 8.69694L16.8018 8.71494C16.9542 8.7357 17.1086 8.69583 17.2319 8.6039C17.3552 8.51197 17.4375 8.37534 17.4611 8.22337C17.4846 8.07141 17.4476 7.91626 17.358 7.79129C17.2684 7.66632 17.1333 7.58152 16.9818 7.55512C16.3672 7.45947 15.75 7.3817 15.1309 7.3219V6.9752C15.1309 6.40441 14.9042 5.857 14.5006 5.45339C14.097 5.04977 13.5496 4.82303 12.9788 4.82303H11.0222ZM12.0005 7.17085C12.6579 7.17085 13.3098 7.19042 13.957 7.22955V6.9752C13.957 6.4352 13.5188 5.99694 12.9788 5.99694H11.0222C10.4822 5.99694 10.044 6.4352 10.044 6.9752V7.22955C10.6912 7.19042 11.3431 7.17085 12.0005 7.17085ZM10.8892 10.0822C10.883 9.92649 10.8152 9.77967 10.7007 9.67399C10.5862 9.56832 10.4344 9.51245 10.2788 9.51868C10.1231 9.52491 9.97628 9.59272 9.8706 9.7072C9.76493 9.82168 9.70906 9.97344 9.71529 10.1291L9.95007 15.9987C9.95316 16.0758 9.97139 16.1515 10.0037 16.2215C10.0361 16.2915 10.0819 16.3545 10.1386 16.4068C10.1953 16.4592 10.2617 16.4998 10.3341 16.5265C10.4065 16.5531 10.4834 16.5652 10.5605 16.5622C10.6376 16.5591 10.7133 16.5408 10.7833 16.5085C10.8534 16.4761 10.9163 16.4303 10.9687 16.3736C11.021 16.317 11.0616 16.2505 11.0883 16.1781C11.1149 16.1057 11.1271 16.0288 11.124 15.9517L10.8892 10.0822ZM14.2857 10.1291C14.2888 10.052 14.2767 9.9751 14.25 9.90271C14.2234 9.83032 14.1827 9.76388 14.1304 9.7072C14.0781 9.65051 14.0151 9.60469 13.9451 9.57235C13.875 9.54 13.7993 9.52176 13.7222 9.51868C13.5666 9.51245 13.4148 9.56832 13.3003 9.67399C13.1859 9.77967 13.118 9.92649 13.1118 10.0822L12.877 15.9517C12.8739 16.0288 12.8861 16.1057 12.9127 16.1781C12.9394 16.2505 12.98 16.317 13.0323 16.3736C13.0847 16.4303 13.1476 16.4761 13.2177 16.5085C13.2877 16.5408 13.3634 16.5591 13.4405 16.5622C13.5176 16.5652 13.5945 16.5531 13.6669 16.5265C13.7393 16.4998 13.8057 16.4592 13.8624 16.4068C13.9191 16.3545 13.9649 16.2915 13.9973 16.2215C14.0296 16.1515 14.0479 16.0758 14.0509 15.9987L14.2857 10.1291Z" fill="white"/>
</g>
<defs>
<clipPath id="clip0_504_1266">
<rect width="15.6522" height="15.6522" fill="white" transform="translate(4.17407 4.04044)"/>
</clipPath>
</defs>
</svg>

