<svg width="24" height="24" viewBox="0 0 24 24" fill="none" xmlns="http://www.w3.org/2000/svg">
<path d="M19.1845 3.61957C19.1563 3.45036 19.0922 3.28916 18.9964 3.14685C18.9006 3.00453 18.7754 2.8844 18.6293 2.79456C18.4832 2.70472 18.3195 2.64725 18.1492 2.62603C17.979 2.60482 17.8062 2.62035 17.6425 2.67157L9.2425 5.29597C8.99825 5.37222 8.78477 5.52455 8.63322 5.73071C8.48167 5.93688 8.39999 6.18609 8.4001 6.44197V16.2004C7.85945 15.7949 7.19773 15.5838 6.52215 15.6014C5.84657 15.6189 5.19671 15.8641 4.67786 16.2971C4.15901 16.7301 3.80156 17.3257 3.66343 17.9872C3.5253 18.6487 3.61459 19.3375 3.91682 19.942C4.21905 20.5465 4.71652 21.0312 5.32863 21.3176C5.94074 21.604 6.63163 21.6754 7.28936 21.5201C7.94709 21.3648 8.53313 20.992 8.95252 20.4621C9.37192 19.9322 9.6001 19.2762 9.6001 18.6004V10.042L18.0001 7.41637V13.8004C17.4595 13.3949 16.7977 13.1838 16.1222 13.2014C15.4466 13.2189 14.7967 13.4641 14.2779 13.8971C13.759 14.3301 13.4016 14.9257 13.2634 15.5872C13.1253 16.2487 13.2146 16.9375 13.5168 17.542C13.819 18.1465 14.3165 18.6312 14.9286 18.9176C15.5407 19.204 16.2316 19.2754 16.8894 19.1201C17.5471 18.9648 18.1331 18.592 18.5525 18.0621C18.9719 17.5322 19.2001 16.8762 19.2001 16.2004V3.81637C19.2001 3.74917 19.1941 3.68437 19.1845 3.61957Z" fill="white"/>
</svg>
