<svg width="21" height="21" viewBox="0 0 21 21" fill="none" xmlns="http://www.w3.org/2000/svg">
<path d="M16.09 16.059H13.8334V12.5782C13.8334 11.7482 13.8164 10.6798 12.6563 10.6798C11.4802 10.6798 11.3007 11.5832 11.3007 12.5173V16.059H9.04316V8.90149H11.2109V9.87649H11.2405C11.5437 9.31482 12.2804 8.72066 13.3812 8.72066C15.6675 8.72066 16.0909 10.2023 16.0909 12.1298V16.059H16.09ZM6.49437 7.92232C6.3221 7.92254 6.15148 7.8893 5.99229 7.82449C5.8331 7.75969 5.68847 7.66461 5.5667 7.54469C5.44492 7.42477 5.34839 7.28237 5.28265 7.12567C5.2169 6.96896 5.18323 6.80103 5.18357 6.63149C5.18373 6.37635 5.26078 6.12699 5.40495 5.91494C5.54912 5.7029 5.75395 5.53768 5.99353 5.4402C6.23311 5.34271 6.49669 5.31734 6.75093 5.36727C7.00517 5.41721 7.23865 5.54022 7.42185 5.72074C7.60505 5.90127 7.72974 6.13121 7.78016 6.38147C7.83057 6.63174 7.80444 6.8911 7.70508 7.12675C7.60571 7.36241 7.43757 7.56377 7.22191 7.70538C7.00626 7.84699 6.75278 7.92249 6.49353 7.92232H6.49437ZM7.62566 16.059H5.36224V8.90149H7.62651V16.059H7.62566ZM17.2205 3.27649H4.2301C3.60687 3.27649 3.10474 3.75982 3.10474 4.35732V17.1957C3.10474 17.7932 3.60772 18.2765 4.22925 18.2765H17.2171C17.8386 18.2765 18.3467 17.7932 18.3467 17.1957V4.35732C18.3467 3.75982 17.8386 3.27649 17.2171 3.27649H17.2196H17.2205Z" fill="white"/>
</svg>
