<svg width="21" height="21" viewBox="0 0 21 21" fill="none" xmlns="http://www.w3.org/2000/svg">
<path d="M10.1614 7.02649C9.40777 7.02649 8.67105 7.24642 8.04442 7.65848C7.41779 8.07053 6.92939 8.6562 6.64098 9.34143C6.35257 10.0266 6.27711 10.7806 6.42414 11.5081C6.57117 12.2355 6.93408 12.9037 7.46699 13.4281C7.9999 13.9526 8.67886 14.3097 9.41802 14.4544C10.1572 14.5991 10.9233 14.5249 11.6196 14.241C12.3159 13.9572 12.911 13.4766 13.3297 12.8599C13.7484 12.2432 13.9719 11.5182 13.9719 10.7765C13.9719 9.78193 13.5704 8.8281 12.8558 8.12484C12.1412 7.42158 11.172 7.02649 10.1614 7.02649ZM10.1614 13.2765C9.65898 13.2765 9.16783 13.1299 8.75008 12.8552C8.33233 12.5805 8.00673 12.19 7.81446 11.7332C7.62219 11.2764 7.57188 10.7737 7.6699 10.2888C7.76792 9.80381 8.00986 9.35835 8.36513 9.00872C8.7204 8.65909 9.17304 8.42099 9.66582 8.32453C10.1586 8.22806 10.6694 8.27757 11.1335 8.46679C11.5977 8.65601 11.9945 8.97644 12.2736 9.38756C12.5527 9.79869 12.7017 10.282 12.7017 10.7765C12.6996 11.4389 12.4313 12.0736 11.9554 12.542C11.4794 13.0104 10.8345 13.2744 10.1614 13.2765ZM13.6544 2.96399H6.66846C5.48943 2.96399 4.35868 3.42493 3.52498 4.2454C2.69127 5.06587 2.2229 6.17867 2.2229 7.33899V14.214C2.2229 15.3743 2.69127 16.4871 3.52498 17.3076C4.35868 18.1281 5.48943 18.589 6.66846 18.589H13.6544C14.8334 18.589 15.9641 18.1281 16.7978 17.3076C17.6315 16.4871 18.0999 15.3743 18.0999 14.214V7.33899C18.0999 6.17867 17.6315 5.06587 16.7978 4.2454C15.9641 3.42493 14.8334 2.96399 13.6544 2.96399ZM16.8298 14.214C16.8298 14.6244 16.7476 15.0307 16.588 15.4099C16.4285 15.789 16.1946 16.1335 15.8997 16.4237C15.6048 16.7139 15.2548 16.9441 14.8695 17.1011C14.4843 17.2582 14.0714 17.339 13.6544 17.339H6.66846C6.25146 17.339 5.83855 17.2582 5.45329 17.1011C5.06803 16.9441 4.71798 16.7139 4.42312 16.4237C4.12825 16.1335 3.89435 15.789 3.73477 15.4099C3.5752 15.0307 3.49306 14.6244 3.49306 14.214V7.33899C3.49306 6.51019 3.82761 5.71533 4.42312 5.12928C5.01862 4.54323 5.8263 4.21399 6.66846 4.21399H13.6544C14.0714 4.21399 14.4843 4.29482 14.8695 4.45187C15.2548 4.60891 15.6048 4.8391 15.8997 5.12928C16.1946 5.41946 16.4285 5.76396 16.588 6.1431C16.7476 6.52225 16.8298 6.92861 16.8298 7.33899V14.214ZM15.2421 6.71399C15.2421 6.89941 15.1862 7.08067 15.0815 7.23484C14.9768 7.38901 14.8281 7.50917 14.654 7.58013C14.4799 7.65108 14.2884 7.66965 14.1036 7.63348C13.9188 7.5973 13.7491 7.50801 13.6158 7.3769C13.4826 7.24579 13.3919 7.07874 13.3551 6.89689C13.3184 6.71503 13.3372 6.52653 13.4093 6.35522C13.4814 6.18392 13.6035 6.0375 13.7602 5.93449C13.9168 5.83147 14.101 5.77649 14.2894 5.77649C14.5421 5.77649 14.7844 5.87526 14.963 6.05108C15.1417 6.22689 15.2421 6.46535 15.2421 6.71399Z" fill="white"/>
</svg>
