<svg width="21" height="21" viewBox="0 0 21 21" fill="none" xmlns="http://www.w3.org/2000/svg">
<path d="M19.1476 5.77647C18.4956 6.06814 17.7928 6.2598 17.0646 6.35147C17.8097 5.9098 18.3855 5.2098 18.6565 4.36814C17.9537 4.7848 17.1746 5.07647 16.3533 5.24314C15.6843 4.52647 14.7444 4.1098 13.6775 4.1098C11.6875 4.1098 10.0617 5.7098 10.0617 7.6848C10.0617 7.96814 10.0956 8.24314 10.1549 8.50147C7.14036 8.35147 4.45609 6.92647 2.6694 4.76814C2.35609 5.29314 2.17827 5.9098 2.17827 6.5598C2.17827 7.80147 2.81335 8.90147 3.79561 9.52647C3.1944 9.52647 2.63552 9.3598 2.1444 9.1098V9.1348C2.1444 10.8681 3.39762 12.3181 5.0573 12.6431C4.52445 12.7866 3.96504 12.8066 3.42303 12.7015C3.65301 13.4119 4.10344 14.0335 4.71098 14.4789C5.31853 14.9243 6.05264 15.1712 6.81012 15.1848C5.5261 16.1852 3.93447 16.7259 2.29682 16.7181C2.00891 16.7181 1.72101 16.7015 1.43311 16.6681C3.04198 17.6848 4.95569 18.2765 7.00488 18.2765C13.6775 18.2765 17.344 12.8265 17.344 8.10147C17.344 7.94314 17.344 7.79314 17.3355 7.6348C18.0468 7.1348 18.6565 6.50147 19.1476 5.77647Z" fill="white"/>
</svg>
