<svg width="35" height="20" viewBox="0 0 35 20" fill="none" xmlns="http://www.w3.org/2000/svg">
<path d="M23.7656 19.1352C23.5365 18.906 23.4165 18.6143 23.4056 18.2602C23.3956 17.906 23.5052 17.6143 23.7344 17.3852L29.8594 11.2602H2.14062C1.78646 11.2602 1.48938 11.1402 1.24938 10.9002C1.01021 10.661 0.890625 10.3643 0.890625 10.0102C0.890625 9.656 1.01021 9.35891 1.24938 9.11891C1.48938 8.87975 1.78646 8.76016 2.14062 8.76016H29.8594L23.7344 2.63516C23.5052 2.406 23.3956 2.11433 23.4056 1.76016C23.4165 1.406 23.5365 1.11433 23.7656 0.885162C23.9948 0.655995 24.2865 0.541412 24.6406 0.541412C24.9948 0.541412 25.2865 0.655995 25.5156 0.885162L33.7656 9.13516C33.8906 9.23933 33.9794 9.36933 34.0319 9.52516C34.0835 9.68183 34.1094 9.8435 34.1094 10.0102C34.1094 10.1768 34.0835 10.3331 34.0319 10.4789C33.9794 10.6247 33.8906 10.7602 33.7656 10.8852L25.5156 19.1352C25.2865 19.3643 24.9948 19.4789 24.6406 19.4789C24.2865 19.4789 23.9948 19.3643 23.7656 19.1352Z" fill="#222222"/>
</svg>
